<mxfile host="app.diagrams.net" modified="2023-08-06T02:45:08.814Z" agent="Mozilla/5.0 (Windows NT 10.0; Win64; x64) AppleWebKit/537.36 (KHTML, like Gecko) Chrome/115.0.0.0 Safari/537.36" etag="EervsZz2pIoO8k_AKiQl" version="21.6.6" type="device">
  <diagram name="Page-1" id="HtAcLtHkczY1ligh3v8u">
    <mxGraphModel dx="1642" dy="1534" grid="1" gridSize="10" guides="1" tooltips="1" connect="1" arrows="1" fold="1" page="1" pageScale="1" pageWidth="850" pageHeight="1100" math="0" shadow="0">
      <root>
        <mxCell id="0" />
        <mxCell id="1" parent="0" />
        <mxCell id="IOyZv-TnH8kgx5Yf8ICI-1" value="airlines" style="rounded=0;whiteSpace=wrap;html=1;" vertex="1" parent="1">
          <mxGeometry x="140" y="120" width="120" height="40" as="geometry" />
        </mxCell>
        <mxCell id="IOyZv-TnH8kgx5Yf8ICI-2" value="&lt;u&gt;id&lt;/u&gt;" style="ellipse;whiteSpace=wrap;html=1;" vertex="1" parent="1">
          <mxGeometry x="300" y="45" width="100" height="50" as="geometry" />
        </mxCell>
        <mxCell id="IOyZv-TnH8kgx5Yf8ICI-3" value="name" style="ellipse;whiteSpace=wrap;html=1;" vertex="1" parent="1">
          <mxGeometry x="100" y="-20" width="110" height="60" as="geometry" />
        </mxCell>
        <mxCell id="IOyZv-TnH8kgx5Yf8ICI-4" value="address" style="ellipse;whiteSpace=wrap;html=1;" vertex="1" parent="1">
          <mxGeometry x="220" y="-20" width="110" height="60" as="geometry" />
        </mxCell>
        <mxCell id="IOyZv-TnH8kgx5Yf8ICI-5" value="name_of contact persone" style="ellipse;whiteSpace=wrap;html=1;" vertex="1" parent="1">
          <mxGeometry y="20" width="110" height="60" as="geometry" />
        </mxCell>
        <mxCell id="IOyZv-TnH8kgx5Yf8ICI-6" value="" style="ellipse;whiteSpace=wrap;html=1;" vertex="1" parent="1">
          <mxGeometry x="-40" y="90" width="120" height="70" as="geometry" />
        </mxCell>
        <mxCell id="IOyZv-TnH8kgx5Yf8ICI-7" value="telephone numbers" style="ellipse;whiteSpace=wrap;html=1;" vertex="1" parent="1">
          <mxGeometry x="-32.5" y="95" width="105" height="60" as="geometry" />
        </mxCell>
        <mxCell id="IOyZv-TnH8kgx5Yf8ICI-8" value="" style="endArrow=none;html=1;rounded=0;exitX=0.393;exitY=0.018;exitDx=0;exitDy=0;exitPerimeter=0;entryX=0.5;entryY=1;entryDx=0;entryDy=0;" edge="1" parent="1" source="IOyZv-TnH8kgx5Yf8ICI-1" target="IOyZv-TnH8kgx5Yf8ICI-3">
          <mxGeometry width="50" height="50" relative="1" as="geometry">
            <mxPoint x="100" y="90" as="sourcePoint" />
            <mxPoint x="150" y="40" as="targetPoint" />
          </mxGeometry>
        </mxCell>
        <mxCell id="IOyZv-TnH8kgx5Yf8ICI-9" value="" style="endArrow=none;html=1;rounded=0;exitX=0.066;exitY=-0.029;exitDx=0;exitDy=0;exitPerimeter=0;entryX=1;entryY=1;entryDx=0;entryDy=0;" edge="1" parent="1" source="IOyZv-TnH8kgx5Yf8ICI-1" target="IOyZv-TnH8kgx5Yf8ICI-5">
          <mxGeometry width="50" height="50" relative="1" as="geometry">
            <mxPoint x="60" y="130" as="sourcePoint" />
            <mxPoint x="110" y="80" as="targetPoint" />
          </mxGeometry>
        </mxCell>
        <mxCell id="IOyZv-TnH8kgx5Yf8ICI-10" value="" style="endArrow=none;html=1;rounded=0;exitX=0;exitY=0.5;exitDx=0;exitDy=0;entryX=1;entryY=0.5;entryDx=0;entryDy=0;" edge="1" parent="1" source="IOyZv-TnH8kgx5Yf8ICI-1" target="IOyZv-TnH8kgx5Yf8ICI-6">
          <mxGeometry width="50" height="50" relative="1" as="geometry">
            <mxPoint x="158" y="129" as="sourcePoint" />
            <mxPoint x="104" y="81" as="targetPoint" />
          </mxGeometry>
        </mxCell>
        <mxCell id="IOyZv-TnH8kgx5Yf8ICI-11" value="" style="endArrow=none;html=1;rounded=0;exitX=0.5;exitY=0;exitDx=0;exitDy=0;entryX=0;entryY=1;entryDx=0;entryDy=0;" edge="1" parent="1" source="IOyZv-TnH8kgx5Yf8ICI-1" target="IOyZv-TnH8kgx5Yf8ICI-4">
          <mxGeometry width="50" height="50" relative="1" as="geometry">
            <mxPoint x="168" y="139" as="sourcePoint" />
            <mxPoint x="245" y="40" as="targetPoint" />
          </mxGeometry>
        </mxCell>
        <mxCell id="IOyZv-TnH8kgx5Yf8ICI-12" value="" style="endArrow=none;html=1;rounded=0;exitX=0.049;exitY=0.673;exitDx=0;exitDy=0;exitPerimeter=0;entryX=0.899;entryY=0.018;entryDx=0;entryDy=0;entryPerimeter=0;" edge="1" parent="1" source="IOyZv-TnH8kgx5Yf8ICI-2" target="IOyZv-TnH8kgx5Yf8ICI-1">
          <mxGeometry width="50" height="50" relative="1" as="geometry">
            <mxPoint x="178" y="149" as="sourcePoint" />
            <mxPoint x="124" y="101" as="targetPoint" />
          </mxGeometry>
        </mxCell>
      </root>
    </mxGraphModel>
  </diagram>
</mxfile>
